<svg width="24" height="25" viewBox="0 0 24 25" fill="none" xmlns="http://www.w3.org/2000/svg">
<path d="M12.9767 20.3125C12.6911 20.3126 12.4118 20.2211 12.1742 20.0494C11.9367 19.8777 11.7515 19.6336 11.6422 19.348C11.5328 19.0625 11.5042 18.7482 11.56 18.445C11.6158 18.1418 11.7534 17.8633 11.9554 17.6448L16.3697 12.8688C16.4145 12.8204 16.4501 12.7629 16.4744 12.6996C16.4986 12.6364 16.5111 12.5685 16.5111 12.5C16.5111 12.4315 16.4986 12.3637 16.4744 12.3004C16.4501 12.2371 16.4145 12.1796 16.3697 12.1313L11.9593 7.35522C11.6884 7.06224 11.5362 6.66481 11.5361 6.25038C11.536 5.83594 11.6881 5.43844 11.9588 5.14532C12.2295 4.8522 12.5968 4.68748 12.9797 4.68738C13.3627 4.68728 13.73 4.85182 14.0009 5.1448L18.4151 9.92188C19.0458 10.6063 19.4 11.5334 19.4 12.5C19.4 13.4666 19.0458 14.3937 18.4151 15.0781L14.0009 19.8552C13.8664 20.0007 13.7067 20.1159 13.5309 20.1944C13.3552 20.2729 13.1668 20.313 12.9767 20.3125Z" fill="white"/>
<path d="M6.23867 20.3125C5.95302 20.3126 5.67374 20.2211 5.43618 20.0494C5.19863 19.8777 5.01347 19.6336 4.90413 19.348C4.7948 19.0625 4.7662 18.7482 4.82197 18.445C4.87773 18.1418 5.01535 17.8633 5.21741 17.6448L9.9753 12.5L5.22126 7.35522C4.9504 7.06224 4.79818 6.66481 4.79809 6.25038C4.798 5.83594 4.95004 5.43844 5.22077 5.14532C5.4915 4.8522 5.85874 4.68748 6.2417 4.68738C6.62466 4.68728 6.99197 4.85182 7.26283 5.1448L13.0381 11.3948C13.1723 11.5399 13.2788 11.7122 13.3514 11.9018C13.424 12.0915 13.4614 12.2947 13.4614 12.5C13.4614 12.7053 13.424 12.9085 13.3514 13.0982C13.2788 13.2878 13.1723 13.4601 13.0381 13.6052L7.26283 19.8552C7.12835 20.0007 6.96865 20.1159 6.7929 20.1944C6.61714 20.2729 6.4288 20.313 6.23867 20.3125Z" fill="white"/>
</svg>
