<svg width="50" height="50" viewBox="0 0 50 50" fill="none" xmlns="http://www.w3.org/2000/svg">
<g filter="url(#filter0_d_0_163)">
<path d="M5 21C5 32.0457 13.9543 41 25 41C36.0457 41 45 32.0457 45 21C45 9.95431 36.0457 1 25 1C13.9543 1 5 9.95431 5 21Z" fill="#1877F2"/>
<path d="M35 21C35 15.5 30.5 11 25 11C19.5 11 15 15.5 15 21C15 26 18.625 30.125 23.375 30.875V23.875H20.875V21H23.375V18.75C23.375 16.25 24.875 14.875 27.125 14.875C28.25 14.875 29.375 15.125 29.375 15.125V17.625H28.125C26.875 17.625 26.5 18.375 26.5 19.125V21H29.25L28.75 23.875H26.375V31C31.375 30.25 35 26 35 21Z" fill="white"/>
</g>
<defs>
<filter id="filter0_d_0_163" x="0" y="0" width="50" height="50" filterUnits="userSpaceOnUse" color-interpolation-filters="sRGB">
<feFlood flood-opacity="0" result="BackgroundImageFix"/>
<feColorMatrix in="SourceAlpha" type="matrix" values="0 0 0 0 0 0 0 0 0 0 0 0 0 0 0 0 0 0 127 0" result="hardAlpha"/>
<feOffset dy="4"/>
<feGaussianBlur stdDeviation="2.5"/>
<feComposite in2="hardAlpha" operator="out"/>
<feColorMatrix type="matrix" values="0 0 0 0 0 0 0 0 0 0 0 0 0 0 0 0 0 0 0.25 0"/>
<feBlend mode="normal" in2="BackgroundImageFix" result="effect1_dropShadow_0_163"/>
<feBlend mode="normal" in="SourceGraphic" in2="effect1_dropShadow_0_163" result="shape"/>
</filter>
</defs>
</svg>
