<svg width="16" height="15" viewBox="0 0 16 15" fill="none" xmlns="http://www.w3.org/2000/svg">
<path d="M15.5081 13.4034L12.513 10.4989C14.7541 7.59596 14.143 3.48158 11.1482 1.30926C8.15335 -0.863068 3.90877 -0.270745 1.6677 2.63224C-0.573367 5.53522 0.0376995 9.6496 3.03255 11.8219C5.43826 13.5669 8.74246 13.5669 11.1482 11.8219L14.1446 14.7264C14.5211 15.0914 15.1316 15.0914 15.5081 14.7264C15.8847 14.3614 15.8847 13.7696 15.5081 13.4046L15.5081 13.4034ZM7.11534 11.2613C4.45366 11.2613 2.29597 9.16983 2.29597 6.58979C2.29597 4.00976 4.45366 1.91825 7.11534 1.91825C9.77702 1.91825 11.9347 4.00976 11.9347 6.58979C11.9319 9.16866 9.77585 11.2586 7.11534 11.2613Z" fill="#374957"/>
</svg>
