<svg width="51" height="50" viewBox="0 0 51 50" fill="none" xmlns="http://www.w3.org/2000/svg">
<g filter="url(#filter0_d_0_166)">
<path d="M5.40503 21C5.40503 32.0457 14.3593 41 25.405 41C36.4507 41 45.405 32.0457 45.405 21C45.405 9.95431 36.4507 1 25.405 1C14.3593 1 5.40503 9.95431 5.40503 21Z" fill="#FF0000"/>
<path d="M34.905 16.125C34.655 15.25 34.03 14.625 33.155 14.375C31.655 14 25.28 14 25.28 14C25.28 14 19.03 14 17.405 14.375C16.53 14.625 15.905 15.25 15.655 16.125C15.405 17.75 15.405 21 15.405 21C15.405 21 15.405 24.25 15.78 25.875C16.03 26.75 16.655 27.375 17.53 27.625C19.03 28 25.405 28 25.405 28C25.405 28 31.655 28 33.28 27.625C34.155 27.375 34.78 26.75 35.03 25.875C35.405 24.25 35.405 21 35.405 21C35.405 21 35.405 17.75 34.905 16.125ZM23.405 24V18L28.655 21L23.405 24Z" fill="white"/>
</g>
<defs>
<filter id="filter0_d_0_166" x="0.405029" y="0" width="50" height="50" filterUnits="userSpaceOnUse" color-interpolation-filters="sRGB">
<feFlood flood-opacity="0" result="BackgroundImageFix"/>
<feColorMatrix in="SourceAlpha" type="matrix" values="0 0 0 0 0 0 0 0 0 0 0 0 0 0 0 0 0 0 127 0" result="hardAlpha"/>
<feOffset dy="4"/>
<feGaussianBlur stdDeviation="2.5"/>
<feComposite in2="hardAlpha" operator="out"/>
<feColorMatrix type="matrix" values="0 0 0 0 0 0 0 0 0 0 0 0 0 0 0 0 0 0 0.25 0"/>
<feBlend mode="normal" in2="BackgroundImageFix" result="effect1_dropShadow_0_166"/>
<feBlend mode="normal" in="SourceGraphic" in2="effect1_dropShadow_0_166" result="shape"/>
</filter>
</defs>
</svg>
